<svg xmlns="http://www.w3.org/2000/svg" xmlns:xlink="http://www.w3.org/1999/xlink" width="500" zoomAndPan="magnify" viewBox="0 0 375 374.999991" height="500" preserveAspectRatio="xMidYMid meet" version="1.0"><defs><g/><clipPath id="6a1d1fa445"><path d="M 163 67.351562 L 224.851562 67.351562 L 224.851562 126 L 163 126 Z M 163 67.351562 " clip-rule="nonzero"/></clipPath><clipPath id="fd7e6a1fad"><path d="M 149.851562 121 L 211 121 L 211 179.101562 L 149.851562 179.101562 Z M 149.851562 121 " clip-rule="nonzero"/></clipPath><clipPath id="80880af51c"><path d="M 60 282.71875 L 315 282.71875 L 315 285.71875 L 60 285.71875 Z M 60 282.71875 " clip-rule="nonzero"/></clipPath><clipPath id="c540934a51"><path d="M 60 314.503906 L 315 314.503906 L 315 317.503906 L 60 317.503906 Z M 60 314.503906 " clip-rule="nonzero"/></clipPath></defs><rect x="-37.5" width="450" fill="#ffffff" y="-37.499999" height="449.999989" fill-opacity="1"/><rect x="-37.5" width="450" fill="#ffffff" y="-37.499999" height="449.999989" fill-opacity="1"/><rect x="-37.5" width="450" fill="#252639" y="-37.499999" height="449.999989" fill-opacity="1"/><path fill="#cbac40" d="M 176.808594 109.257812 C 182.996094 101.769531 203.164062 94.648438 219.757812 88.058594 C 220.171875 85.960938 220.597656 83.859375 221.046875 81.777344 C 204.714844 88.511719 180.054688 96.972656 173.6875 104.679688 C 167.332031 112.375 167.566406 123.351562 173.730469 130.75 C 170.398438 124.308594 171.59375 115.570312 176.808594 109.257812 " fill-opacity="1" fill-rule="nonzero"/><g clip-path="url(#6a1d1fa445)"><path fill="#cbac40" d="M 170.292969 101.867188 C 177.648438 92.964844 204.761719 84.585938 222.140625 76.988281 C 222.945312 73.664062 223.832031 70.425781 224.855469 67.355469 C 205.972656 77.941406 178.476562 84.117188 169.652344 94.800781 C 162.320312 103.671875 162.113281 116.09375 168.359375 125.113281 C 164.207031 117.9375 164.703125 108.628906 170.292969 101.867188 " fill-opacity="1" fill-rule="nonzero"/></g><path fill="#cbac40" d="M 181.40625 116.878906 C 186.792969 110.355469 202.792969 104.113281 217.796875 98.257812 C 218.15625 96.410156 218.511719 94.539062 218.871094 92.652344 C 203.554688 98.6875 185.515625 105.644531 180.203125 112.070312 C 175.34375 117.957031 174.335938 125.761719 176.890625 132.417969 C 176.21875 127.03125 177.679688 121.390625 181.40625 116.878906 " fill-opacity="1" fill-rule="nonzero"/><path fill="#ffffff" d="M 197.898438 137.1875 C 191.714844 144.675781 171.546875 151.792969 154.953125 158.382812 C 154.539062 160.484375 154.113281 162.582031 153.664062 164.664062 C 169.996094 157.929688 194.65625 149.46875 201.023438 141.761719 C 207.378906 134.066406 207.144531 123.089844 200.976562 115.691406 C 204.3125 122.132812 203.117188 130.871094 197.898438 137.1875 " fill-opacity="1" fill-rule="nonzero"/><g clip-path="url(#fd7e6a1fad)"><path fill="#ffffff" d="M 204.417969 144.578125 C 197.0625 153.480469 169.949219 161.855469 152.570312 169.453125 C 151.765625 172.777344 150.875 176.019531 149.855469 179.085938 C 168.738281 168.503906 196.234375 162.324219 205.058594 151.640625 C 212.390625 142.769531 212.597656 130.347656 206.347656 121.328125 C 210.503906 128.503906 210.007812 137.8125 204.417969 144.578125 " fill-opacity="1" fill-rule="nonzero"/></g><path fill="#ffffff" d="M 193.304688 129.5625 C 187.914062 136.085938 171.917969 142.328125 156.914062 148.183594 C 156.554688 150.03125 156.199219 151.902344 155.839844 153.789062 C 171.15625 147.753906 189.195312 140.800781 194.507812 134.371094 C 199.367188 128.488281 200.375 120.679688 197.816406 114.023438 C 198.488281 119.410156 197.03125 125.050781 193.304688 129.5625 " fill-opacity="1" fill-rule="nonzero"/><g clip-path="url(#80880af51c)"><path fill="#cbac40" d="M 314.933594 285.695312 L 60.195312 285.695312 L 60.195312 282.710938 L 314.933594 282.710938 L 314.933594 285.695312 " fill-opacity="1" fill-rule="nonzero"/></g><g fill="#ffffff" fill-opacity="1"><g transform="translate(87.470496, 227.541285)"><g><path d="M 9.253906 -14.238281 L 0.492188 -14.238281 L 0.492188 -13.226562 L 6.871094 -13.226562 C 6.023438 -12.652344 5.394531 -11.71875 5.394531 -10.40625 L 5.394531 0 L 6.488281 0 L 6.488281 -10.40625 C 6.488281 -11.746094 7.230469 -13.035156 8.378906 -13.226562 L 9.253906 -13.226562 Z M 9.253906 -14.238281 "/></g></g></g><g fill="#ffffff" fill-opacity="1"><g transform="translate(102.665967, 227.541285)"><g><path d="M 4.273438 -13.226562 C 5.53125 -13.226562 6.460938 -12.15625 6.460938 -11.035156 L 6.460938 0 L 7.558594 0 L 7.558594 -10.953125 C 7.558594 -12.761719 6.078125 -14.238281 4.273438 -14.238281 L 0.492188 -14.238281 L 0.492188 -13.199219 Z M 4.273438 -13.226562 "/></g></g></g><g fill="#ffffff" fill-opacity="1"><g transform="translate(117.122322, 227.541285)"><g><path d="M 6.929688 -8.515625 C 6.929688 -6.023438 5.613281 -5.503906 2.683594 -5.503906 L 2.683594 -14.238281 L 1.5625 -14.238281 L 1.5625 0 L 5.832031 0 C 10.023438 0 13.335938 -2.21875 13.335938 -6.570312 L 13.335938 -14.238281 L 12.210938 -14.238281 L 12.210938 -6.488281 C 12.210938 -2.875 9.363281 -1.011719 5.832031 -1.011719 L 2.683594 -1.011719 L 2.683594 -4.65625 C 5.996094 -4.65625 8.050781 -5.558594 8.050781 -8.515625 L 8.050781 -14.238281 L 6.929688 -14.238281 Z M 6.929688 -8.515625 "/></g></g></g><g fill="#ffffff" fill-opacity="1"><g transform="translate(137.163166, 227.541285)"><g><path d="M 6.898438 -13.226562 C 8.160156 -13.226562 9.089844 -12.15625 9.089844 -11.035156 L 9.089844 -1.011719 L 5.339844 -1.011719 L 5.339844 0 L 10.1875 0 L 10.1875 -10.953125 C 10.1875 -12.761719 8.734375 -14.238281 6.898438 -14.238281 L 1.425781 -14.238281 L 1.425781 -13.226562 L 4.382812 -13.226562 C 3.011719 -12.652344 1.425781 -10.597656 1.425781 -5.667969 L 1.425781 0 L 2.519531 0 L 2.519531 -5.667969 C 2.519531 -10.1875 3.886719 -13.226562 6.597656 -13.226562 Z M 6.898438 -13.226562 "/></g></g></g><g fill="#ffffff" fill-opacity="1"><g transform="translate(154.247517, 227.541285)"><g/></g></g><g fill="#ffffff" fill-opacity="1"><g transform="translate(166.294866, 227.541285)"><g><path d="M 4.273438 -13.226562 C 5.53125 -13.226562 6.460938 -12.15625 6.460938 -11.035156 L 6.460938 0 L 7.558594 0 L 7.558594 -10.953125 C 7.558594 -12.761719 6.078125 -14.238281 4.273438 -14.238281 L 0.492188 -14.238281 L 0.492188 -13.199219 Z M 4.273438 -13.226562 "/></g></g></g><g fill="#ffffff" fill-opacity="1"><g transform="translate(180.75122, 227.541285)"><g><path d="M 3.914062 -13.226562 C 5.148438 -13.226562 6.050781 -12.183594 6.050781 -10.953125 L 6.050781 -4.191406 C 6.050781 -2.628906 6.40625 -1.5625 6.984375 -1.011719 L 0.574219 -1.011719 L 0.574219 0 L 9.199219 0 L 9.199219 -1.011719 L 8.84375 -1.011719 C 7.667969 -1.011719 7.175781 -2.246094 7.175781 -4.191406 L 7.175781 -10.980469 C 7.175781 -12.84375 5.667969 -14.238281 3.914062 -14.238281 L 0.957031 -14.238281 L 0.957031 -13.226562 Z M 3.914062 -13.226562 "/></g></g></g><g fill="#ffffff" fill-opacity="1"><g transform="translate(195.700322, 227.541285)"><g><path d="M 4.273438 -13.226562 C 5.53125 -13.226562 6.460938 -12.15625 6.460938 -11.035156 L 6.460938 0 L 7.558594 0 L 7.558594 -10.953125 C 7.558594 -12.761719 6.078125 -14.238281 4.273438 -14.238281 L 0.492188 -14.238281 L 0.492188 -13.199219 Z M 4.273438 -13.226562 "/></g></g></g><g fill="#ffffff" fill-opacity="1"><g transform="translate(210.15668, 227.541285)"><g><path d="M 1.5625 0 L 3.203125 0 C 7.148438 0 10.351562 -1.671875 10.351562 -6.570312 L 10.351562 -10.925781 C 10.351562 -12.789062 8.871094 -14.238281 7.066406 -14.238281 L 1.5625 -14.238281 Z M 7.066406 -13.226562 C 8.324219 -13.226562 9.226562 -12.183594 9.226562 -11.035156 L 9.226562 -6.460938 C 9.226562 -2.574219 6.871094 -0.929688 3.257812 -0.929688 L 2.65625 -0.929688 L 2.65625 -13.226562 Z M 7.066406 -13.226562 "/></g></g></g><g fill="#ffffff" fill-opacity="1"><g transform="translate(227.104154, 227.541285)"><g/></g></g><g fill="#ffffff" fill-opacity="1"><g transform="translate(239.151509, 227.541285)"><g><path d="M 1.5625 0 L 10.324219 0 L 10.324219 -10.953125 C 10.324219 -12.761719 8.84375 -14.238281 7.039062 -14.238281 L 1.5625 -14.238281 Z M 7.039062 -13.226562 C 8.296875 -13.226562 9.226562 -12.15625 9.226562 -11.035156 L 9.226562 -1.011719 L 2.65625 -1.011719 L 2.65625 -13.226562 Z M 7.039062 -13.226562 "/></g></g></g><g fill="#ffffff" fill-opacity="1"><g transform="translate(256.372737, 227.541285)"><g><path d="M 1.617188 0 L 2.710938 0 L 2.710938 -8.761719 L 1.617188 -8.761719 Z M 6.40625 -13.226562 C 7.667969 -13.226562 8.597656 -12.15625 8.597656 -11.035156 L 8.597656 0 L 9.695312 0 L 9.695312 -10.953125 C 9.695312 -12.761719 8.242188 -14.238281 6.40625 -14.238281 L 1.480469 -14.238281 L 1.480469 -13.226562 Z M 6.40625 -13.226562 "/></g></g></g><g fill="#ffffff" fill-opacity="1"><g transform="translate(272.964335, 227.541285)"><g><path d="M 6.929688 -8.515625 C 6.929688 -6.023438 5.613281 -5.503906 2.683594 -5.503906 L 2.683594 -14.238281 L 1.5625 -14.238281 L 1.5625 0 L 5.832031 0 C 10.023438 0 13.335938 -2.21875 13.335938 -6.570312 L 13.335938 -14.238281 L 12.210938 -14.238281 L 12.210938 -6.488281 C 12.210938 -2.875 9.363281 -1.011719 5.832031 -1.011719 L 2.683594 -1.011719 L 2.683594 -4.65625 C 5.996094 -4.65625 8.050781 -5.558594 8.050781 -8.515625 L 8.050781 -14.238281 L 6.929688 -14.238281 Z M 6.929688 -8.515625 "/></g></g></g><g fill="#ffffff" fill-opacity="1"><g transform="translate(134.861117, 265.791283)"><g><path d="M 1.5625 4.382812 L 2.65625 4.382812 L 2.65625 -14.238281 L 1.5625 -14.238281 Z M 1.5625 4.382812 "/></g></g></g><g fill="#ffffff" fill-opacity="1"><g transform="translate(144.554224, 265.791283)"><g><path d="M 1.339844 -7.3125 L 2.4375 -7.3125 L 2.4375 -14.238281 L 1.339844 -14.238281 Z M 1.339844 -7.3125 "/></g></g></g><g fill="#ffffff" fill-opacity="1"><g transform="translate(153.809331, 265.791283)"><g><path d="M 9.253906 -14.238281 L 0.492188 -14.238281 L 0.492188 -13.226562 L 6.871094 -13.226562 C 6.023438 -12.652344 5.394531 -11.71875 5.394531 -10.40625 L 5.394531 0 L 6.488281 0 L 6.488281 -10.40625 C 6.488281 -11.746094 7.230469 -13.035156 8.378906 -13.226562 L 9.253906 -13.226562 Z M 9.253906 -14.238281 "/></g></g></g><g fill="#ffffff" fill-opacity="1"><g transform="translate(169.004804, 265.791283)"><g/></g></g><g fill="#ffffff" fill-opacity="1"><g transform="translate(181.052153, 265.791283)"><g><path d="M 1.339844 -7.3125 L 2.4375 -7.3125 L 2.4375 -14.238281 L 1.339844 -14.238281 Z M 1.339844 -7.3125 "/></g></g></g><g fill="#ffffff" fill-opacity="1"><g transform="translate(190.307258, 265.791283)"><g><path d="M 4.792969 -13.226562 C 6.214844 -13.226562 6.984375 -12.375 6.984375 -11.035156 L 6.984375 -6.460938 C 6.984375 -2.109375 4.984375 -1.011719 2.027344 -1.011719 L 0.957031 -1.011719 L 0.957031 0 L 2.054688 0 C 5.3125 0 8.105469 -1.589844 8.105469 -6.570312 L 8.105469 -10.925781 C 8.105469 -13.117188 6.871094 -14.238281 4.792969 -14.238281 L 1.039062 -14.238281 L 1.039062 -13.226562 Z M 4.792969 -13.226562 "/></g></g></g><g fill="#ffffff" fill-opacity="1"><g transform="translate(205.00998, 265.791283)"><g><path d="M 4.273438 -13.226562 C 5.53125 -13.226562 6.460938 -12.15625 6.460938 -11.035156 L 6.460938 0 L 7.558594 0 L 7.558594 -10.953125 C 7.558594 -12.761719 6.078125 -14.238281 4.273438 -14.238281 L 0.492188 -14.238281 L 0.492188 -13.199219 Z M 4.273438 -13.226562 "/></g></g></g><g fill="#ffffff" fill-opacity="1"><g transform="translate(219.466333, 265.791283)"><g><path d="M 2.65625 -14.238281 L 1.5625 -14.238281 L 1.5625 0 L 2.65625 0 Z M 2.65625 -14.238281 "/></g></g></g><g fill="#ffffff" fill-opacity="1"><g transform="translate(229.159438, 265.791283)"><g><path d="M 1.285156 -13.308594 C 1.285156 -11.746094 1.78125 -10.105469 2.792969 -6.707031 L 4.410156 -1.175781 C 3.230469 -0.929688 2.355469 -0.902344 0.957031 -0.902344 L 0.957031 0 L 1.835938 0 C 6.296875 0 9.75 -1.699219 9.75 -6.542969 L 9.75 -14.238281 L 8.625 -14.238281 L 8.625 -6.433594 C 8.625 -3.75 7.339844 -2.21875 5.367188 -1.480469 L 3.722656 -6.957031 C 2.792969 -10.132812 2.382812 -11.800781 2.382812 -13.308594 L 2.382812 -14.238281 L 1.285156 -14.238281 Z M 1.285156 -13.308594 "/></g></g></g><g fill="#ffffff" fill-opacity="1"><g transform="translate(61.588925, 303.702635)"><g><path d="M 3.765625 -3.15625 L 1.9375 -3.59375 C 1.4375 -3.707031 1.070312 -3.910156 0.84375 -4.203125 C 0.625 -4.492188 0.515625 -4.898438 0.515625 -5.421875 C 0.515625 -6.179688 0.734375 -6.738281 1.171875 -7.09375 C 1.609375 -7.457031 2.285156 -7.640625 3.203125 -7.640625 C 3.585938 -7.640625 3.929688 -7.617188 4.234375 -7.578125 C 4.546875 -7.546875 4.832031 -7.492188 5.09375 -7.421875 L 5.09375 -6.5 C 4.757812 -6.582031 4.441406 -6.640625 4.140625 -6.671875 C 3.835938 -6.703125 3.519531 -6.71875 3.1875 -6.71875 C 2.570312 -6.71875 2.140625 -6.628906 1.890625 -6.453125 C 1.648438 -6.273438 1.53125 -5.957031 1.53125 -5.5 C 1.53125 -5.207031 1.585938 -4.988281 1.703125 -4.84375 C 1.816406 -4.695312 2.003906 -4.59375 2.265625 -4.53125 L 4.078125 -4.09375 C 4.722656 -3.9375 5.148438 -3.71875 5.359375 -3.4375 C 5.566406 -3.164062 5.671875 -2.742188 5.671875 -2.171875 C 5.671875 -1.347656 5.457031 -0.765625 5.03125 -0.421875 C 4.601562 -0.078125 3.925781 0.09375 3 0.09375 C 2.507812 0.09375 2.035156 0.0625 1.578125 0 C 1.128906 -0.0625 0.773438 -0.144531 0.515625 -0.25 L 0.515625 -1.21875 C 0.890625 -1.101562 1.289062 -1.015625 1.71875 -0.953125 C 2.144531 -0.890625 2.570312 -0.859375 3 -0.859375 C 3.601562 -0.859375 4.023438 -0.945312 4.265625 -1.125 C 4.503906 -1.300781 4.625 -1.640625 4.625 -2.140625 C 4.625 -2.453125 4.5625 -2.675781 4.4375 -2.8125 C 4.320312 -2.957031 4.097656 -3.070312 3.765625 -3.15625 Z M 3.765625 -3.15625 "/></g></g></g><g fill="#ffffff" fill-opacity="1"><g transform="translate(71.836932, 303.702635)"><g><path d="M 1.890625 0 L 0.859375 0 L 0.859375 -7.53125 L 1.890625 -7.53125 L 1.890625 -4.28125 L 5.8125 -4.28125 L 5.8125 -7.53125 L 6.84375 -7.53125 L 6.84375 0 L 5.8125 0 L 5.8125 -3.34375 L 1.890625 -3.34375 Z M 1.890625 0 "/></g></g></g><g fill="#ffffff" fill-opacity="1"><g transform="translate(83.740946, 303.702635)"><g><path d="M 7.25 -3.78125 C 7.25 -2.414062 6.984375 -1.425781 6.453125 -0.8125 C 5.929688 -0.207031 5.082031 0.09375 3.90625 0.09375 C 2.625 0.09375 1.742188 -0.1875 1.265625 -0.75 C 0.785156 -1.3125 0.546875 -2.320312 0.546875 -3.78125 C 0.546875 -5.132812 0.804688 -6.113281 1.328125 -6.71875 C 1.859375 -7.332031 2.71875 -7.640625 3.90625 -7.640625 C 5.175781 -7.640625 6.050781 -7.359375 6.53125 -6.796875 C 7.007812 -6.234375 7.25 -5.226562 7.25 -3.78125 Z M 1.9375 -1.609375 C 2.082031 -1.335938 2.300781 -1.144531 2.59375 -1.03125 C 2.894531 -0.914062 3.332031 -0.859375 3.90625 -0.859375 C 4.789062 -0.859375 5.394531 -1.070312 5.71875 -1.5 C 6.050781 -1.925781 6.21875 -2.6875 6.21875 -3.78125 C 6.21875 -4.320312 6.1875 -4.765625 6.125 -5.109375 C 6.070312 -5.460938 5.988281 -5.75 5.875 -5.96875 C 5.71875 -6.238281 5.492188 -6.429688 5.203125 -6.546875 C 4.910156 -6.660156 4.476562 -6.71875 3.90625 -6.71875 C 3.007812 -6.71875 2.394531 -6.5 2.0625 -6.0625 C 1.738281 -5.632812 1.578125 -4.875 1.578125 -3.78125 C 1.578125 -3.238281 1.601562 -2.789062 1.65625 -2.4375 C 1.707031 -2.09375 1.800781 -1.816406 1.9375 -1.609375 Z M 1.9375 -1.609375 "/></g></g></g><g fill="#ffffff" fill-opacity="1"><g transform="translate(95.72896, 303.702635)"><g><path d="M 1.890625 0 L 0.859375 0 L 0.859375 -7.53125 L 1.890625 -7.53125 L 1.890625 -4.28125 L 5.8125 -4.28125 L 5.8125 -7.53125 L 6.84375 -7.53125 L 6.84375 0 L 5.8125 0 L 5.8125 -3.34375 L 1.890625 -3.34375 Z M 1.890625 0 "/></g></g></g><g fill="#ffffff" fill-opacity="1"><g transform="translate(107.632972, 303.702635)"><g><path d="M 1.171875 0 L 0.09375 0 L 3.078125 -7.53125 L 4.125 -7.53125 L 7.0625 0 L 5.984375 0 L 5.296875 -1.8125 L 1.859375 -1.8125 Z M 3.578125 -6.59375 C 3.492188 -6.3125 3.394531 -6.015625 3.28125 -5.703125 C 3.175781 -5.390625 3.070312 -5.078125 2.96875 -4.765625 L 2.203125 -2.71875 L 4.96875 -2.71875 L 4.203125 -4.765625 C 4.035156 -5.203125 3.90625 -5.554688 3.8125 -5.828125 C 3.726562 -6.097656 3.648438 -6.351562 3.578125 -6.59375 Z M 3.578125 -6.59375 "/></g></g></g><g fill="#ffffff" fill-opacity="1"><g transform="translate(119.008988, 303.702635)"><g><path d="M 7.953125 -7.53125 L 7.953125 0 L 7 0 L 7 -5.921875 L 4.84375 -1.5 L 3.96875 -1.5 L 1.828125 -5.9375 L 1.828125 0 L 0.859375 0 L 0.859375 -7.53125 L 2.140625 -7.53125 L 4.421875 -2.734375 L 6.71875 -7.53125 Z M 7.953125 -7.53125 "/></g></g></g><g fill="#ffffff" fill-opacity="1"><g transform="translate(132.029004, 303.702635)"><g/></g></g><g fill="#ffffff" fill-opacity="1"><g transform="translate(138.281008, 303.702635)"><g><path d="M 3.765625 -3.15625 L 1.9375 -3.59375 C 1.4375 -3.707031 1.070312 -3.910156 0.84375 -4.203125 C 0.625 -4.492188 0.515625 -4.898438 0.515625 -5.421875 C 0.515625 -6.179688 0.734375 -6.738281 1.171875 -7.09375 C 1.609375 -7.457031 2.285156 -7.640625 3.203125 -7.640625 C 3.585938 -7.640625 3.929688 -7.617188 4.234375 -7.578125 C 4.546875 -7.546875 4.832031 -7.492188 5.09375 -7.421875 L 5.09375 -6.5 C 4.757812 -6.582031 4.441406 -6.640625 4.140625 -6.671875 C 3.835938 -6.703125 3.519531 -6.71875 3.1875 -6.71875 C 2.570312 -6.71875 2.140625 -6.628906 1.890625 -6.453125 C 1.648438 -6.273438 1.53125 -5.957031 1.53125 -5.5 C 1.53125 -5.207031 1.585938 -4.988281 1.703125 -4.84375 C 1.816406 -4.695312 2.003906 -4.59375 2.265625 -4.53125 L 4.078125 -4.09375 C 4.722656 -3.9375 5.148438 -3.71875 5.359375 -3.4375 C 5.566406 -3.164062 5.671875 -2.742188 5.671875 -2.171875 C 5.671875 -1.347656 5.457031 -0.765625 5.03125 -0.421875 C 4.601562 -0.078125 3.925781 0.09375 3 0.09375 C 2.507812 0.09375 2.035156 0.0625 1.578125 0 C 1.128906 -0.0625 0.773438 -0.144531 0.515625 -0.25 L 0.515625 -1.21875 C 0.890625 -1.101562 1.289062 -1.015625 1.71875 -0.953125 C 2.144531 -0.890625 2.570312 -0.859375 3 -0.859375 C 3.601562 -0.859375 4.023438 -0.945312 4.265625 -1.125 C 4.503906 -1.300781 4.625 -1.640625 4.625 -2.140625 C 4.625 -2.453125 4.5625 -2.675781 4.4375 -2.8125 C 4.320312 -2.957031 4.097656 -3.070312 3.765625 -3.15625 Z M 3.765625 -3.15625 "/></g></g></g><g fill="#ffffff" fill-opacity="1"><g transform="translate(148.529014, 303.702635)"><g><path d="M 5.859375 -0.953125 L 5.859375 0 L 0.859375 0 L 0.859375 -7.53125 L 5.75 -7.53125 L 5.75 -6.59375 L 1.890625 -6.59375 L 1.890625 -4.296875 L 5.296875 -4.296875 L 5.296875 -3.390625 L 1.890625 -3.390625 L 1.890625 -0.953125 Z M 5.859375 -0.953125 "/></g></g></g><g fill="#ffffff" fill-opacity="1"><g transform="translate(159.005021, 303.702635)"><g><path d="M 1.890625 -2.703125 L 1.890625 0 L 0.859375 0 L 0.859375 -7.53125 L 3.421875 -7.53125 C 4.484375 -7.53125 5.242188 -7.347656 5.703125 -6.984375 C 6.160156 -6.617188 6.390625 -6.015625 6.390625 -5.171875 C 6.390625 -4.515625 6.242188 -3.992188 5.953125 -3.609375 C 5.660156 -3.222656 5.21875 -2.957031 4.625 -2.8125 L 6.59375 0 L 5.375 0 L 3.546875 -2.703125 Z M 5.359375 -5.171875 C 5.359375 -5.679688 5.207031 -6.046875 4.90625 -6.265625 C 4.613281 -6.484375 4.117188 -6.59375 3.421875 -6.59375 L 1.890625 -6.59375 L 1.890625 -3.59375 L 3.421875 -3.59375 C 4.109375 -3.59375 4.601562 -3.71875 4.90625 -3.96875 C 5.207031 -4.21875 5.359375 -4.617188 5.359375 -5.171875 Z M 5.359375 -5.171875 "/></g></g></g><g fill="#ffffff" fill-opacity="1"><g transform="translate(170.153042, 303.702635)"><g><path d="M 2.921875 0 L 0.09375 -7.53125 L 1.21875 -7.53125 L 2.953125 -2.765625 C 3.015625 -2.554688 3.09375 -2.296875 3.1875 -1.984375 C 3.289062 -1.679688 3.410156 -1.285156 3.546875 -0.796875 C 3.648438 -1.179688 3.75 -1.546875 3.84375 -1.890625 C 3.945312 -2.234375 4.035156 -2.523438 4.109375 -2.765625 L 5.828125 -7.53125 L 6.9375 -7.53125 L 4.109375 0 Z M 2.921875 0 "/></g></g></g><g fill="#ffffff" fill-opacity="1"><g transform="translate(181.385063, 303.702635)"><g><path d="M 5.859375 -0.953125 L 5.859375 0 L 0.859375 0 L 0.859375 -7.53125 L 5.75 -7.53125 L 5.75 -6.59375 L 1.890625 -6.59375 L 1.890625 -4.296875 L 5.296875 -4.296875 L 5.296875 -3.390625 L 1.890625 -3.390625 L 1.890625 -0.953125 Z M 5.859375 -0.953125 "/></g></g></g><g fill="#ffffff" fill-opacity="1"><g transform="translate(191.861075, 303.702635)"><g><path d="M 1.890625 -2.703125 L 1.890625 0 L 0.859375 0 L 0.859375 -7.53125 L 3.421875 -7.53125 C 4.484375 -7.53125 5.242188 -7.347656 5.703125 -6.984375 C 6.160156 -6.617188 6.390625 -6.015625 6.390625 -5.171875 C 6.390625 -4.515625 6.242188 -3.992188 5.953125 -3.609375 C 5.660156 -3.222656 5.21875 -2.957031 4.625 -2.8125 L 6.59375 0 L 5.375 0 L 3.546875 -2.703125 Z M 5.359375 -5.171875 C 5.359375 -5.679688 5.207031 -6.046875 4.90625 -6.265625 C 4.613281 -6.484375 4.117188 -6.59375 3.421875 -6.59375 L 1.890625 -6.59375 L 1.890625 -3.59375 L 3.421875 -3.59375 C 4.109375 -3.59375 4.601562 -3.71875 4.90625 -3.96875 C 5.207031 -4.21875 5.359375 -4.617188 5.359375 -5.171875 Z M 5.359375 -5.171875 "/></g></g></g><g fill="#ffffff" fill-opacity="1"><g transform="translate(203.009096, 303.702635)"><g><path d="M 1.53125 -1.03125 L 1.234375 0.828125 C 1.222656 0.953125 1.175781 1.046875 1.09375 1.109375 C 1.019531 1.171875 0.921875 1.203125 0.796875 1.203125 L 0.484375 1.203125 L 0.546875 -1.03125 Z M 1.53125 -1.03125 "/></g></g></g><g fill="#ffffff" fill-opacity="1"><g transform="translate(209.225103, 303.702635)"><g/></g></g><g fill="#ffffff" fill-opacity="1"><g transform="translate(215.477113, 303.702635)"><g><path d="M 5.46875 -0.953125 L 5.46875 0 L 0.859375 0 L 0.859375 -7.53125 L 1.890625 -7.53125 L 1.890625 -0.953125 Z M 5.46875 -0.953125 "/></g></g></g><g fill="#ffffff" fill-opacity="1"><g transform="translate(225.34113, 303.702635)"><g><path d="M 1.171875 0 L 0.09375 0 L 3.078125 -7.53125 L 4.125 -7.53125 L 7.0625 0 L 5.984375 0 L 5.296875 -1.8125 L 1.859375 -1.8125 Z M 3.578125 -6.59375 C 3.492188 -6.3125 3.394531 -6.015625 3.28125 -5.703125 C 3.175781 -5.390625 3.070312 -5.078125 2.96875 -4.765625 L 2.203125 -2.71875 L 4.96875 -2.71875 L 4.203125 -4.765625 C 4.035156 -5.203125 3.90625 -5.554688 3.8125 -5.828125 C 3.726562 -6.097656 3.648438 -6.351562 3.578125 -6.59375 Z M 3.578125 -6.59375 "/></g></g></g><g fill="#ffffff" fill-opacity="1"><g transform="translate(236.717151, 303.702635)"><g><path d="M 2.25 0 L 0.15625 -7.53125 L 1.265625 -7.53125 L 2.515625 -2.765625 C 2.546875 -2.628906 2.578125 -2.472656 2.609375 -2.296875 C 2.640625 -2.128906 2.722656 -1.691406 2.859375 -0.984375 C 3.003906 -1.710938 3.09375 -2.160156 3.125 -2.328125 C 3.164062 -2.492188 3.203125 -2.640625 3.234375 -2.765625 L 4.609375 -7.53125 L 5.671875 -7.53125 L 7.0625 -2.765625 C 7.09375 -2.640625 7.125 -2.492188 7.15625 -2.328125 C 7.195312 -2.171875 7.289062 -1.734375 7.4375 -1.015625 C 7.53125 -1.492188 7.601562 -1.878906 7.65625 -2.171875 C 7.71875 -2.460938 7.757812 -2.660156 7.78125 -2.765625 L 9.03125 -7.53125 L 10.09375 -7.53125 L 8 0 L 6.859375 0 L 5.640625 -4.03125 C 5.554688 -4.320312 5.472656 -4.632812 5.390625 -4.96875 C 5.304688 -5.3125 5.21875 -5.71875 5.125 -6.1875 C 5.03125 -5.71875 4.941406 -5.3125 4.859375 -4.96875 C 4.773438 -4.632812 4.691406 -4.320312 4.609375 -4.03125 L 3.40625 0 Z M 2.25 0 "/></g></g></g><g fill="#ffffff" fill-opacity="1"><g transform="translate(251.165179, 303.702635)"><g/></g></g><g fill="#ffffff" fill-opacity="1"><g transform="translate(257.417189, 303.702635)"><g><path d="M 7.25 -3.78125 C 7.25 -2.414062 6.984375 -1.425781 6.453125 -0.8125 C 5.929688 -0.207031 5.082031 0.09375 3.90625 0.09375 C 2.625 0.09375 1.742188 -0.1875 1.265625 -0.75 C 0.785156 -1.3125 0.546875 -2.320312 0.546875 -3.78125 C 0.546875 -5.132812 0.804688 -6.113281 1.328125 -6.71875 C 1.859375 -7.332031 2.71875 -7.640625 3.90625 -7.640625 C 5.175781 -7.640625 6.050781 -7.359375 6.53125 -6.796875 C 7.007812 -6.234375 7.25 -5.226562 7.25 -3.78125 Z M 1.9375 -1.609375 C 2.082031 -1.335938 2.300781 -1.144531 2.59375 -1.03125 C 2.894531 -0.914062 3.332031 -0.859375 3.90625 -0.859375 C 4.789062 -0.859375 5.394531 -1.070312 5.71875 -1.5 C 6.050781 -1.925781 6.21875 -2.6875 6.21875 -3.78125 C 6.21875 -4.320312 6.1875 -4.765625 6.125 -5.109375 C 6.070312 -5.460938 5.988281 -5.75 5.875 -5.96875 C 5.71875 -6.238281 5.492188 -6.429688 5.203125 -6.546875 C 4.910156 -6.660156 4.476562 -6.71875 3.90625 -6.71875 C 3.007812 -6.71875 2.394531 -6.5 2.0625 -6.0625 C 1.738281 -5.632812 1.578125 -4.875 1.578125 -3.78125 C 1.578125 -3.238281 1.601562 -2.789062 1.65625 -2.4375 C 1.707031 -2.09375 1.800781 -1.816406 1.9375 -1.609375 Z M 1.9375 -1.609375 "/></g></g></g><g fill="#ffffff" fill-opacity="1"><g transform="translate(269.405195, 303.702635)"><g><path d="M 1.890625 -3.09375 L 1.890625 0 L 0.859375 0 L 0.859375 -7.53125 L 5.6875 -7.53125 L 5.6875 -6.59375 L 1.890625 -6.59375 L 1.890625 -4 L 5.25 -4 L 5.25 -3.09375 Z M 1.890625 -3.09375 "/></g></g></g><g fill="#ffffff" fill-opacity="1"><g transform="translate(279.581212, 303.702635)"><g><path d="M 1.890625 -3.09375 L 1.890625 0 L 0.859375 0 L 0.859375 -7.53125 L 5.6875 -7.53125 L 5.6875 -6.59375 L 1.890625 -6.59375 L 1.890625 -4 L 5.25 -4 L 5.25 -3.09375 Z M 1.890625 -3.09375 "/></g></g></g><g fill="#ffffff" fill-opacity="1"><g transform="translate(289.757229, 303.702635)"><g><path d="M 1.890625 -7.53125 L 1.890625 0 L 0.859375 0 L 0.859375 -7.53125 Z M 1.890625 -7.53125 "/></g></g></g><g fill="#ffffff" fill-opacity="1"><g transform="translate(296.705234, 303.702635)"><g><path d="M 3.859375 -0.859375 C 4.179688 -0.859375 4.523438 -0.894531 4.890625 -0.96875 C 5.253906 -1.050781 5.59375 -1.15625 5.90625 -1.28125 L 5.90625 -0.375 C 5.46875 -0.195312 5.078125 -0.0703125 4.734375 0 C 4.390625 0.0625 4.035156 0.09375 3.671875 0.09375 C 2.515625 0.09375 1.703125 -0.203125 1.234375 -0.796875 C 0.765625 -1.390625 0.53125 -2.382812 0.53125 -3.78125 C 0.53125 -5.113281 0.800781 -6.085938 1.34375 -6.703125 C 1.894531 -7.328125 2.769531 -7.640625 3.96875 -7.640625 C 4.34375 -7.640625 4.671875 -7.628906 4.953125 -7.609375 C 5.242188 -7.597656 5.503906 -7.570312 5.734375 -7.53125 L 5.734375 -6.640625 C 5.453125 -6.671875 5.171875 -6.691406 4.890625 -6.703125 C 4.609375 -6.710938 4.300781 -6.71875 3.96875 -6.71875 C 3.070312 -6.71875 2.445312 -6.492188 2.09375 -6.046875 C 1.75 -5.609375 1.578125 -4.851562 1.578125 -3.78125 C 1.578125 -2.6875 1.734375 -1.925781 2.046875 -1.5 C 2.367188 -1.070312 2.972656 -0.859375 3.859375 -0.859375 Z M 3.859375 -0.859375 "/></g></g></g><g fill="#ffffff" fill-opacity="1"><g transform="translate(307.121234, 303.702635)"><g><path d="M 5.859375 -0.953125 L 5.859375 0 L 0.859375 0 L 0.859375 -7.53125 L 5.75 -7.53125 L 5.75 -6.59375 L 1.890625 -6.59375 L 1.890625 -4.296875 L 5.296875 -4.296875 L 5.296875 -3.390625 L 1.890625 -3.390625 L 1.890625 -0.953125 Z M 5.859375 -0.953125 "/></g></g></g><g clip-path="url(#c540934a51)"><path fill="#cbac40" d="M 314.933594 317.480469 L 60.195312 317.480469 L 60.195312 314.492188 L 314.933594 314.492188 L 314.933594 317.480469 " fill-opacity="1" fill-rule="nonzero"/></g></svg>